<svg width="24" height="24" xmlns="http://www.w3.org/2000/svg"><g fill="none" fill-rule="evenodd"><path d="M0 0h24v24H0z"></path><path d="M0 0h24v24H0z"></path><path d="M15.272 1.482a2.75 2.75 0 012.745 2.583l.005.167v3.296h-1.5l-.001-1.56H6.03v13.768c0 .647.492 1.18 1.122 1.243l.128.007h7.992a1.25 1.25 0 001.243-1.122l.007-.128v-.216h1.5v.216a2.75 2.75 0 01-2.583 2.745l-.167.005H7.28a2.75 2.75 0 01-2.745-2.583l-.005-.167V4.232a2.75 2.75 0 012.583-2.745l.167-.005h7.992zm7.247 7.503v9.013H9.027V8.985H22.52zm-1.501 1.5H10.527v6.012h10.491v-6.012zm-5.245 1.006a2 2 0 110 4 2 2 0 010-4zm0 1.5a.5.5 0 100 1 .5.5 0 000-1zm-.501-10.009H7.28a1.25 1.25 0 00-1.244 1.123l-.006.127v.235h10.491v-.235A1.25 1.25 0 0015.4 2.99l-.127-.007z" fill="#000" fill-rule="nonzero"></path></g></svg>