<svg xmlns:xlink="http://www.w3.org/1999/xlink" xmlns="http://www.w3.org/2000/svg" width="24" height="24" viewBox="0 0 24 24"><path fill-opacity="0.8" d="M12 .805c6.213 0 11.25 5.037 11.25 11.25S18.213 23.305 12 23.305.75 18.268.75 12.055 5.787.805 12 .805zm0 1.5c-5.385 0-9.75 4.365-9.75 9.75s4.365 9.75 9.75 9.75 9.75-4.365 9.75-9.75-4.365-9.75-9.75-9.75zm.135 13.698c.612 0 1.134.504 1.134 1.116 0 .612-.522 1.134-1.134 1.134-.612 0-1.116-.522-1.116-1.134 0-.612.504-1.116 1.116-1.116zm.162-10.134c2.232 0 3.582 1.224 3.582 2.808 0 1.494-1.026 2.232-1.962 2.88-.72.522-1.386.972-1.386 1.728 0 .288.18.63.432.846l-1.332.504c-.45-.432-.666-.936-.666-1.512 0-1.206.864-1.818 1.674-2.394.72-.504 1.386-.954 1.386-1.782 0-.792-.612-1.476-1.908-1.476-1.224 0-2.052.54-2.682 1.368L8.391 7.687c.882-1.134 2.232-1.818 3.906-1.818z"></path></svg>