<svg width="143" height="37" viewBox="0 0 143 37" fill="none" xmlns="http://www.w3.org/2000/svg">
<g clip-path="url(#clip0_111_779)">
<path d="M52.0038 17.0067C52.0038 7.63788 40.361 -1.42826e-05 26.0019 -1.42826e-05C11.6408 -1.42826e-05 0.00196593 7.63788 0.00196593 17.0067C0.00196593 17.2487 0 17.9194 0 18.004C0 27.9413 10.1734 35.9923 25.9979 35.9923C41.9228 35.9923 52.0038 27.9453 52.0038 18.004V17.0067Z" fill="#0A0080"/>
<path d="M51.0069 16.9991C51.0069 25.831 39.8166 32.9929 26.0062 32.9929C12.1998 32.9929 1.00749 25.831 1.00749 16.9991C1.00749 8.16528 12.1998 1.0034 26.0062 1.0034C39.8166 1.0034 51.0069 8.16528 51.0069 16.9991Z" fill="#00BCFF"/>
<path d="M17.706 11.9527C17.6923 11.9783 17.4424 12.2379 17.6037 12.4425C17.9991 12.948 19.2187 13.2352 20.452 12.9598C21.1857 12.7946 22.1239 12.0471 23.0347 11.3252C24.0221 10.5404 25.0036 9.75361 25.9871 9.44282C27.0296 9.11039 27.6965 9.25202 28.139 9.38381C28.6229 9.53133 29.1934 9.84802 30.1001 10.5306C31.8114 11.817 38.6901 17.8203 39.8762 18.8589C40.8361 18.4261 45.0888 16.5929 50.8698 15.3222C50.3682 12.2399 48.4917 9.41921 45.6493 7.10995C41.6878 8.77404 36.845 9.64345 32.1104 7.32828C32.0868 7.32238 29.5238 6.10677 26.9942 6.16775C23.2373 6.2543 21.6086 7.88101 19.8855 9.60215L17.706 11.9527Z" fill="white"/>
<path d="M39.5986 19.5115C39.518 19.4407 31.5123 12.4323 29.6967 11.0691C28.6483 10.2823 28.0641 10.0817 27.4504 10.003C27.1298 9.96368 26.6911 10.0207 26.3803 10.1073C25.5385 10.3354 24.435 11.0731 23.4554 11.8481C22.4404 12.6585 21.4844 13.4178 20.5973 13.6184C19.4643 13.8721 18.0796 13.5712 17.4462 13.1443C17.1905 12.9732 17.0115 12.7726 16.9249 12.5719C16.6908 12.029 17.1216 11.5983 17.1905 11.5235L19.4014 9.13557C19.6571 8.87986 19.9167 8.62219 20.1823 8.36844C19.4702 8.46286 18.8113 8.64579 18.1681 8.82282C17.3675 9.04903 16.5984 9.26146 15.8175 9.26146C15.4929 9.26146 13.7502 8.97821 13.4197 8.88773C11.4212 8.33697 9.66469 7.80784 7.04464 6.5824C3.90333 8.92117 1.80256 11.8461 1.19672 15.0661C1.64717 15.1861 2.37299 15.4005 2.67788 15.4674C9.78861 17.0488 12.0015 18.6775 12.4047 19.0178C12.8394 18.5339 13.465 18.2271 14.1652 18.2271C14.954 18.231 15.6621 18.6244 16.0929 19.2342C16.5 18.9116 17.0606 18.6402 17.7865 18.6402C18.115 18.6402 18.4572 18.6992 18.8034 18.8172C19.606 19.0906 20.019 19.6256 20.2334 20.1115C20.5029 19.9876 20.8334 19.8971 21.2228 19.899C21.6064 19.899 22.0057 19.9856 22.405 20.1587C23.715 20.7213 23.9196 22.0116 23.8016 22.9813C23.896 22.9695 23.9865 22.9656 24.0848 22.9656C25.6368 22.9676 26.9036 24.2284 26.9016 25.7843C26.9016 26.2663 26.7777 26.7167 26.5652 27.116C26.9881 27.352 28.0661 27.891 29.0102 27.771C29.7675 27.6746 30.0547 27.417 30.157 27.2714C30.2278 27.173 30.3025 27.055 30.2317 26.9704L28.2293 24.7418C28.2293 24.7418 27.8969 24.431 28.0051 24.3091C28.1192 24.1871 28.3237 24.3642 28.4693 24.4841C29.4862 25.3378 30.7353 26.6223 30.7353 26.6223C30.755 26.638 30.8395 26.7993 31.2979 26.8819C31.6952 26.9527 32.3974 26.9134 32.8852 26.5141C33.0072 26.4138 33.1311 26.2859 33.2334 26.1581C33.2255 26.164 33.2177 26.1718 33.2098 26.1758C33.7232 25.5188 33.1527 24.8539 33.1527 24.8539L30.812 22.226C30.812 22.226 30.4756 21.9152 30.5897 21.7893C30.692 21.6831 30.9084 21.8464 31.0539 21.9683C31.7955 22.586 32.8439 23.6403 33.8471 24.6238C34.0438 24.7654 34.927 25.3123 36.0954 24.5451C36.8035 24.0789 36.9451 23.5085 36.9274 23.0758C36.8763 22.5053 36.4317 22.0982 36.4317 22.0982L33.2334 18.8841C33.2334 18.8841 32.8951 18.5949 33.0131 18.4494C33.1114 18.3254 33.3298 18.5025 33.4753 18.6244C34.4942 19.4761 37.254 22.0057 37.254 22.0057C37.2913 22.0332 38.2473 22.7119 39.4216 21.9605C39.8445 21.691 40.114 21.2858 40.1356 20.8157C40.1769 19.9954 39.5986 19.5115 39.5986 19.5115Z" fill="white"/>
<path d="M24.0835 23.5878C23.5878 23.5819 23.0469 23.877 22.9741 23.8337C22.9347 23.8081 23.0056 23.6094 23.0528 23.4934C23.098 23.3813 23.7511 21.4162 22.1597 20.7317C20.9402 20.2085 20.1967 20.7966 19.941 21.0641C19.8721 21.133 19.8426 21.1271 19.8347 21.0386C19.8111 20.6845 19.6538 19.7266 18.6014 19.4059C17.0967 18.9476 16.1309 19.996 15.885 20.3737C15.7768 19.5181 15.0529 18.8532 14.1658 18.8512C13.202 18.8512 12.4191 19.6321 12.4191 20.596C12.4191 21.5578 13.2 22.3388 14.1639 22.3388C14.632 22.3407 15.0569 22.1539 15.3696 21.8529C15.3795 21.8627 15.3834 21.8785 15.3775 21.9119C15.3047 22.3427 15.171 23.9104 16.8134 24.5497C17.4724 24.8054 18.031 24.6146 18.4952 24.2881C18.6329 24.1917 18.6545 24.233 18.6349 24.3628C18.5759 24.766 18.6506 25.6296 19.8623 26.1193C20.7828 26.495 21.3277 26.1115 21.6837 25.781C21.8391 25.6394 21.8824 25.665 21.8922 25.8813C21.9335 27.0497 22.9033 27.9742 24.0815 27.9762C25.2932 27.9762 26.2767 26.9966 26.2767 25.7849C26.2767 24.5713 25.2952 23.6016 24.0835 23.5878Z" fill="white"/>
<path d="M24.0835 27.8194C22.9839 27.8194 22.0909 26.9638 22.0516 25.878C22.0476 25.7836 22.0378 25.5357 21.8293 25.5357C21.7427 25.5357 21.666 25.5869 21.5814 25.6636C21.3375 25.8898 21.0307 26.116 20.5822 26.116C20.3776 26.116 20.1573 26.0688 19.9233 25.9744C18.7627 25.5042 18.747 24.7056 18.7942 24.385C18.806 24.3004 18.8099 24.2119 18.7529 24.1431L18.6801 24.0801H18.6093C18.5503 24.0801 18.4873 24.1018 18.4067 24.1608C18.0703 24.3968 17.7477 24.5089 17.4212 24.5089C17.2403 24.5089 17.0573 24.4755 16.8705 24.4027C15.3441 23.8087 15.4641 22.3669 15.5388 21.9322C15.5486 21.8436 15.527 21.7768 15.4719 21.7296L15.3637 21.6391L15.2634 21.7374C14.9644 22.0266 14.575 22.182 14.1658 22.182C13.2925 22.182 12.5784 21.4699 12.5784 20.5946C12.5784 19.7193 13.2944 19.0092 14.1678 19.0092C14.9585 19.0092 15.6332 19.6032 15.7335 20.3959L15.7886 20.8208L16.0207 20.4608C16.0483 20.4176 16.6895 19.4478 17.8697 19.4478C18.092 19.4478 18.3241 19.4872 18.5562 19.558C19.4984 19.8432 19.6557 20.6949 19.6813 21.0529C19.699 21.2594 19.8446 21.2693 19.8741 21.2693C19.9528 21.2693 20.0157 21.2181 20.057 21.1729C20.234 20.986 20.6196 20.6792 21.2254 20.6792C21.5028 20.6811 21.7959 20.7441 22.0988 20.8759C23.5937 21.5171 22.9151 23.4173 22.9072 23.435C22.7794 23.7497 22.7754 23.8893 22.8954 23.968L22.9544 23.9975H22.9977C23.0646 23.9975 23.1472 23.968 23.2868 23.9208C23.4894 23.85 23.7963 23.7457 24.0835 23.7457H24.0855C25.2086 23.7595 26.1233 24.6722 26.1233 25.7855C26.1213 26.9067 25.2066 27.8194 24.0835 27.8194ZM39.9081 18.6748C37.4434 16.5209 31.743 11.5641 30.1969 10.4055C29.3157 9.74261 28.7138 9.39052 28.1867 9.23512C27.9487 9.16431 27.6202 9.0817 27.1973 9.0817C26.8058 9.0817 26.3849 9.15251 25.9423 9.29217C24.9431 9.60689 23.9517 10.3976 22.9879 11.1608L22.9406 11.2002C22.0437 11.9122 21.1192 12.6498 20.4189 12.8052C20.1121 12.8741 19.7974 12.9095 19.4846 12.9095C18.6998 12.9095 17.9956 12.6833 17.732 12.345C17.6868 12.2899 17.7163 12.2014 17.8166 12.0696L17.8304 12.0519L20 9.71311C21.6995 8.01558 23.3045 6.40853 27.0006 6.32395C27.0615 6.32198 27.1245 6.32002 27.1855 6.32002C29.4849 6.32395 31.7843 7.3527 32.042 7.47072C34.1998 8.52503 36.4245 9.06006 38.663 9.06203C40.9958 9.06203 43.4015 8.48373 45.931 7.31926C45.6478 7.08125 45.3527 6.85111 45.0518 6.62294C42.8291 7.58677 40.7126 8.07459 38.6688 8.07459C36.5819 8.07065 34.4968 7.56907 32.4747 6.58163C32.3666 6.53245 29.8291 5.33258 27.1855 5.33258C27.1166 5.33258 27.0478 5.33258 26.9789 5.33455C23.875 5.40733 22.1263 6.51082 20.95 7.47465C19.8052 7.50416 18.8198 7.77954 17.9425 8.02541C17.1576 8.24178 16.483 8.43062 15.824 8.43062C15.5506 8.43062 15.0628 8.40701 15.0195 8.40505C14.2602 8.38144 10.4383 7.44515 7.39735 6.29248C7.08656 6.51278 6.78758 6.73899 6.49843 6.9711C9.67515 8.27129 13.5403 9.28037 14.7599 9.35708C15.0982 9.38265 15.4601 9.42002 15.822 9.42002C16.6285 9.42002 17.433 9.19382 18.2139 8.97744C18.6742 8.84565 19.1817 8.706 19.7148 8.60175C19.5731 8.74337 19.4315 8.88499 19.2879 9.02859L17.0829 11.4126C16.9118 11.5877 16.5321 12.0558 16.7819 12.6321C16.8803 12.8643 17.079 13.0865 17.3622 13.2754C17.8874 13.6294 18.8276 13.8674 19.701 13.8674C20.0314 13.8694 20.3481 13.836 20.6353 13.7691C21.5598 13.5645 22.5276 12.7915 23.5544 11.9752C24.3726 11.3241 25.5351 10.4999 26.4242 10.256C26.674 10.1891 26.9809 10.1478 27.2268 10.1478C27.2995 10.1498 27.3684 10.1498 27.4313 10.1577C28.0195 10.2344 28.5899 10.433 29.6049 11.1962C31.4145 12.5554 39.4222 19.5619 39.5009 19.6308C39.5068 19.6347 40.0162 20.0733 39.9808 20.809C39.9612 21.2162 39.735 21.5781 39.3416 21.8299C38.9993 22.0462 38.6452 22.1564 38.2912 22.1564C37.7542 22.1564 37.3864 21.9046 37.3628 21.8869C37.3313 21.8633 34.5893 19.3475 33.5782 18.5037C33.4189 18.3699 33.2635 18.2499 33.1062 18.2499C33.0196 18.2499 32.9449 18.2853 32.8937 18.3483C32.7344 18.545 32.9134 18.8164 33.1239 18.9954L36.3301 22.2134C36.334 22.2174 36.7294 22.5891 36.7707 23.0848C36.7963 23.6179 36.5405 24.0644 36.0095 24.4126C35.6318 24.6624 35.2502 24.7883 34.8745 24.7883C34.3808 24.7883 34.0385 24.564 33.9598 24.5089L33.5015 24.0585C32.6596 23.2304 31.7922 22.3747 31.1588 21.8456C31.0034 21.7158 30.8382 21.5978 30.6808 21.5978C30.6021 21.5978 30.5313 21.6292 30.4782 21.6843C30.4054 21.765 30.3543 21.9086 30.5353 22.1485C30.61 22.2489 30.6966 22.3295 30.6966 22.3295L33.0373 24.9555C33.057 24.981 33.5173 25.5298 33.0884 26.0766L33.0058 26.1829C32.935 26.2596 32.8603 26.3284 32.7895 26.3914C32.3902 26.7199 31.8571 26.7533 31.6466 26.7533C31.5325 26.7533 31.4224 26.7435 31.3299 26.7258C31.0978 26.6864 30.9424 26.6215 30.8697 26.533L30.8421 26.5015C30.7123 26.3717 29.5341 25.1659 28.5584 24.3535C28.4306 24.2473 28.2693 24.1096 28.104 24.1096C28.0214 24.1096 27.9487 24.1431 27.8936 24.2041C27.6988 24.4165 27.988 24.7332 28.1119 24.8473L30.1084 27.0464C30.1065 27.0661 30.0789 27.1133 30.0297 27.1821C29.9589 27.2824 29.717 27.5244 28.9951 27.6148C28.9086 27.6247 28.8181 27.6286 28.7296 27.6286C27.9821 27.6286 27.1874 27.2667 26.7763 27.0484C26.9651 26.6549 27.0615 26.2222 27.0615 25.7855C27.0615 24.1431 25.7279 22.8075 24.0855 22.8075C24.05 22.8075 24.0146 22.8075 23.9773 22.8094C24.0343 22.06 23.9281 20.6398 22.4705 20.0163C22.0516 19.8334 21.6326 19.7429 21.2254 19.7429C20.9087 19.7429 20.6019 19.796 20.3127 19.9081C20.0137 19.32 19.5122 18.8931 18.8571 18.6709C18.4952 18.545 18.1372 18.482 17.7891 18.482C17.1813 18.482 16.6246 18.6591 16.1269 19.0131C15.6489 18.4211 14.9271 18.069 14.1678 18.069C13.5049 18.069 12.8656 18.3345 12.3916 18.8046C11.772 18.3286 9.30732 16.7648 2.71587 15.2679C2.39721 15.1971 1.66549 14.9867 1.21504 14.8549C1.14029 15.2109 1.08522 15.5709 1.04588 15.9348C1.04588 15.9348 2.26149 16.2259 2.50147 16.2809C9.23454 17.7778 11.4612 19.3318 11.8369 19.6249C11.709 19.9317 11.6441 20.2622 11.6422 20.5946C11.6422 21.9872 12.7732 23.1183 14.1658 23.1202C14.3212 23.1202 14.4746 23.1065 14.6281 23.0789C14.8385 24.1018 15.5073 24.8787 16.5321 25.2761C16.8292 25.3921 17.134 25.4511 17.4311 25.4511C17.6238 25.4511 17.8146 25.4275 18.0054 25.3803C18.1943 25.8583 18.6211 26.4582 19.5712 26.8438C19.9056 26.9775 20.238 27.0464 20.5625 27.0464C20.8281 27.0464 21.0877 27.0011 21.3336 26.9107C21.79 28.022 22.8738 28.7577 24.0835 28.7577C24.8841 28.7596 25.6532 28.4331 26.2157 27.8548C26.6957 28.1204 27.7106 28.6023 28.7335 28.6043C28.8672 28.6043 28.9912 28.5984 29.1171 28.5826C30.134 28.4528 30.6061 28.0555 30.8244 27.7466C30.8638 27.6916 30.8992 27.6326 30.9287 27.5755C31.1706 27.6444 31.4322 27.6994 31.7371 27.6994C32.2918 27.6994 32.8249 27.5126 33.3658 27.1192C33.893 26.7356 34.2706 26.1888 34.3237 25.7226C34.3257 25.7167 34.3277 25.7088 34.3277 25.701C34.5067 25.7383 34.6916 25.756 34.8706 25.756C35.4449 25.756 36.0075 25.579 36.5445 25.2269C37.5811 24.5463 37.7621 23.6592 37.7463 23.077C37.9273 23.1124 38.1122 23.134 38.2971 23.134C38.8341 23.134 39.3612 22.9727 39.8628 22.6521C40.508 22.241 40.8935 21.6115 40.9525 20.8798C40.9939 20.3822 40.8699 19.8806 40.6064 19.4478C42.3452 18.6984 46.3166 17.2507 50.9961 16.1964C50.9666 15.8325 50.9154 15.4745 50.8486 15.1184C45.1895 16.3754 40.9663 18.2007 39.9081 18.6748Z" fill="#0A0080"/>
<path d="M138.276 12.9171C137.819 13.521 137.17 13.8239 136.316 13.8239C135.467 13.8239 134.812 13.521 134.353 12.9171C133.893 12.3133 133.665 11.4537 133.665 10.3384C133.665 9.22506 133.893 8.36744 134.353 7.76751C134.812 7.1656 135.467 6.86465 136.316 6.86465C137.17 6.86465 137.819 7.1656 138.276 7.76751C138.728 8.36744 138.958 9.22506 138.958 10.3384C138.958 11.4537 138.728 12.3133 138.276 12.9171ZM140.601 6.17029C139.66 4.99599 138.236 4.40785 136.326 4.40785C134.416 4.40785 132.99 4.99599 132.052 6.17029C131.112 7.34656 130.644 8.73527 130.644 10.3384C130.644 11.971 131.112 13.3656 132.052 14.5242C132.99 15.6808 134.416 16.261 136.326 16.261C138.236 16.261 139.66 15.6808 140.601 14.5242C141.539 13.3656 142.007 11.971 142.007 10.3384C142.007 8.73527 141.539 7.34656 140.601 6.17029" fill="#0A0080"/>
<path d="M115.136 11.5436C115.117 12.5193 114.837 13.192 114.3 13.5598C113.765 13.9296 113.177 14.1145 112.542 14.1145C112.139 14.1145 111.798 14.0004 111.517 13.7801C111.236 13.5559 111.096 13.1979 111.096 12.6982C111.096 12.1416 111.326 11.7285 111.784 11.461C112.058 11.3056 112.502 11.1719 113.126 11.0656L113.791 10.9397C114.119 10.8768 114.381 10.8099 114.572 10.7391C114.765 10.6703 114.949 10.5778 115.136 10.4578V11.5436ZM116.615 5.18821C115.665 4.70433 114.576 4.46239 113.35 4.46239C111.464 4.46239 110.134 4.95217 109.359 5.93371C108.871 6.56315 108.6 7.36569 108.537 8.34133H111.352C111.421 7.90858 111.56 7.56829 111.767 7.31848C112.058 6.97622 112.552 6.80509 113.25 6.80509C113.871 6.80509 114.346 6.89164 114.668 7.06867C114.987 7.2398 115.148 7.55649 115.148 8.01284C115.148 8.38853 114.938 8.66195 114.521 8.84095C114.285 8.9452 113.897 9.02978 113.354 9.09862L112.355 9.21861C111.222 9.36417 110.36 9.60415 109.778 9.93854C108.712 10.5522 108.181 11.5436 108.181 12.9146C108.181 13.9709 108.509 14.7872 109.174 15.3655C109.835 15.9418 110.673 16.1838 111.69 16.231C118.055 16.5162 117.985 12.8772 118.044 12.1199V7.93022C118.044 6.58675 117.566 5.6721 116.615 5.18821" fill="#0A0080"/>
<path d="M102.099 6.95655C102.827 6.95655 103.362 7.18079 103.706 7.63123C103.942 7.96169 104.092 8.33739 104.149 8.75243H107.29C107.117 7.16702 106.564 6.06353 105.626 5.43802C104.686 4.81251 103.484 4.49779 102.015 4.49779C100.284 4.49779 98.9283 5.03085 97.9448 6.09106C96.9613 7.15325 96.4695 8.63637 96.4695 10.5424C96.4695 12.2321 96.9141 13.609 97.8032 14.6712C98.6942 15.7314 100.083 16.2605 101.969 16.2605C103.86 16.2605 105.284 15.6252 106.244 14.3545C106.847 13.5637 107.184 12.7297 107.255 11.8426H104.125C104.062 12.4288 103.879 12.9048 103.576 13.2726C103.275 13.6365 102.766 13.8234 102.046 13.8234C101.033 13.8234 100.341 13.3611 99.9767 12.4347C99.7741 11.9409 99.6738 11.2859 99.6738 10.4716C99.6738 9.61791 99.7741 8.93339 99.9767 8.4141C100.356 7.44437 101.066 6.95655 102.099 6.95655Z" fill="#0A0080"/>
<path d="M95.6277 4.49777C89.1778 4.49777 89.5575 10.21 89.5575 10.21V16.0126H92.4844V10.5699C92.4844 9.67887 92.6004 9.01795 92.8207 8.58718C93.224 7.82594 94.0088 7.44435 95.1792 7.44435C95.2657 7.44435 95.3838 7.45025 95.5254 7.45811C95.669 7.46402 95.8322 7.47778 96.0171 7.49745V4.52137C95.8873 4.51154 95.8027 4.5076 95.7654 4.50367C95.73 4.5017 95.6827 4.49777 95.6277 4.49777Z" fill="#0A0080"/>
<path d="M80.9404 7.52892C81.3515 7.10602 81.9298 6.89555 82.6773 6.89555C83.3618 6.89555 83.9362 7.09225 84.4023 7.49352C84.8626 7.89479 85.1223 8.47899 85.1734 9.25005H80.1654C80.2697 8.5262 80.5313 7.9538 80.9404 7.52892ZM84.8744 12.9795C84.7505 13.1546 84.6207 13.306 84.4751 13.4221C84.0601 13.7624 83.4995 13.8666 82.8386 13.8666C82.2111 13.8666 81.7213 13.7722 81.2807 13.4929C80.5509 13.0444 80.1379 12.2851 80.0926 11.1699H88.1947C88.2046 10.208 88.1751 9.47233 88.0964 8.96287C87.9626 8.09149 87.6656 7.32435 87.2112 6.66344C86.7057 5.91401 86.0625 5.36521 85.2895 5.01705C84.5125 4.67086 83.6431 4.49776 82.6773 4.49776C81.0466 4.49776 79.7209 5.01115 78.698 6.03793C77.6791 7.06668 77.1657 8.5439 77.1657 10.4696C77.1657 12.5251 77.7322 14.0102 78.8632 14.9209C79.9943 15.8336 81.3023 16.29 82.7815 16.29C84.5735 16.29 85.9681 15.7491 86.9634 14.6672C87.5023 14.0987 87.8367 13.5362 87.9803 12.9795H84.8744Z" fill="#0A0080"/>
<path d="M75.9902 16.0097H73.3171V9.27663C73.3171 8.66293 73.1125 7.19947 71.3501 7.19947C70.1738 7.19947 69.3221 8.04725 69.3221 9.27663V16.0097H66.647V9.27663C66.647 8.66293 66.464 7.19947 64.7016 7.19947C63.5037 7.19947 62.6716 8.04725 62.6716 9.27663V16.0097H59.9965V9.34155C59.9965 6.5602 61.8435 4.45943 64.7016 4.45943C66.1198 4.45943 67.2744 5.05543 68.0258 6.00943C68.8166 5.05543 69.9909 4.45943 71.3501 4.45943C74.2691 4.45943 75.9902 6.47365 75.9902 9.34155V16.0097Z" fill="#0A0080"/>
<path d="M126.262 12.9402C125.835 13.5539 125.206 13.8588 124.386 13.8588C123.562 13.8588 122.948 13.55 122.543 12.9363C122.139 12.3206 121.939 11.4236 121.939 10.3968C121.939 9.44285 122.136 8.64621 122.533 8.003C122.932 7.36175 123.554 7.03917 124.405 7.03917C124.964 7.03917 125.452 7.2162 125.875 7.57026C126.559 8.15249 126.906 9.20484 126.906 10.564C126.906 11.5357 126.689 12.3285 126.262 12.9402ZM129.771 0.982747C129.771 0.982747 126.825 0.668026 126.825 3.0363L126.821 6.17368C126.494 5.64652 126.07 5.23739 125.548 4.9443C125.025 4.64728 124.427 4.49779 123.752 4.49779C122.287 4.49779 121.124 5.04265 120.249 6.12844C119.374 7.22013 118.937 8.78784 118.937 10.686C118.937 12.3304 119.382 13.6818 120.269 14.7321C121.158 15.7806 122.897 16.2428 124.443 16.2428C129.832 16.2428 129.769 11.6203 129.769 11.6203L129.771 0.982747Z" fill="#0A0080"/>
<path d="M67.8264 26.6689C67.8264 25.5634 67.612 24.7176 67.1792 24.1216C66.7484 23.5276 66.1328 23.2286 65.3283 23.2286C64.5552 23.2286 63.9513 23.5276 63.5206 24.1216C63.1193 24.6606 62.9206 25.5103 62.9206 26.6689C62.9206 27.7488 63.1331 28.5513 63.5658 29.0883C63.9946 29.6863 64.6123 29.9833 65.4148 29.9833C66.1603 29.9833 66.7484 29.6863 67.1792 29.0883C67.612 28.4962 67.8264 27.6917 67.8264 26.6689ZM62.9206 34.5881C62.9206 35.0011 62.7633 35.3552 62.4505 35.6424C62.1712 35.902 61.7935 36.0338 61.41 36.0338H59.9937V25.8604C59.9937 23.8816 60.6605 22.6444 61.7581 21.8064C62.5508 21.2026 63.7684 20.6282 66.18 20.7403C67.4231 20.7974 68.621 21.3383 69.4118 22.2982C70.3874 23.4882 70.7946 24.812 70.7946 26.543C70.7946 28.3271 70.3638 29.765 69.5042 30.8743C68.6446 31.9503 67.5392 32.4873 66.1898 32.4873C65.4718 32.4873 64.8404 32.3594 64.2975 32.1057C63.7212 31.8224 63.2668 31.3818 62.9206 30.7878V34.5881Z" fill="#00BCFF"/>
<path d="M85.3699 26.6709C85.3699 28.6202 85.9344 29.702 87.0615 29.9164C88.1886 30.1249 89.0187 29.8653 89.5557 29.1296C89.8095 28.8228 89.9924 28.331 90.1045 27.6681C90.2166 27.0033 90.2245 26.3463 90.1261 25.6952C90.0278 25.0422 89.7957 24.4639 89.4279 23.9544C89.062 23.445 88.525 23.1893 87.8228 23.1893C86.8648 23.1893 86.2177 23.5453 85.8794 24.2514C85.5371 24.9576 85.3699 25.7641 85.3699 26.6709ZM90.1891 31.5471V30.8291C89.6816 31.6238 88.999 32.1155 88.1395 32.3142C87.2799 32.5109 86.4262 32.4421 85.5824 32.0998C84.7365 31.7615 84.0127 31.134 83.4049 30.2154C82.799 29.2909 82.4981 28.0832 82.4981 26.5843C82.4981 24.8317 82.8994 23.4096 83.6999 22.3218C84.5044 21.2321 85.7948 20.7364 87.569 20.6872C89.3197 20.642 90.3346 21.0374 91.33 21.7907C92.4197 22.6169 93.0629 23.8836 93.0629 25.8624V31.848C93.0668 33.7521 91.7391 37.2829 87.569 36.9819C84.9864 36.7931 83.5504 35.7329 82.7518 33.3331H85.8361C86.0623 33.7265 86.4065 34.0314 86.8727 34.2439C87.3369 34.4583 87.8031 34.5114 88.2654 34.415C88.7296 34.3147 89.1525 34.0373 89.536 33.5869C89.9157 33.1325 90.132 32.4539 90.1891 31.5471" fill="#00BCFF"/>
<path d="M78.5143 27.8503C78.4966 28.8279 78.2173 29.4986 77.6803 29.8664C77.1453 30.2362 76.5572 30.4211 75.9218 30.4211C75.5186 30.4211 75.1763 30.3071 74.895 30.0868C74.6157 29.8645 74.4741 29.5045 74.4741 29.0049C74.4741 28.4482 74.7042 28.0352 75.1645 27.7676C75.4379 27.6123 75.8825 27.4785 76.5041 27.3723L77.1689 27.2464C77.4994 27.1834 77.761 27.1185 77.9498 27.0458C78.1426 26.9769 78.3275 26.8845 78.5143 26.7645V27.8503ZM79.9935 21.4949C79.0435 21.0129 77.9518 20.769 76.7263 20.769C74.8419 20.769 73.5122 21.2588 72.7372 22.2423C72.2534 22.8698 71.9799 23.6723 71.917 24.648H74.7318C74.8006 24.2152 74.9403 23.8749 75.1468 23.6251C75.4379 23.2848 75.9317 23.1117 76.628 23.1117C77.2535 23.1117 77.7256 23.1983 78.0462 23.3753C78.3648 23.5464 78.5281 23.8631 78.5281 24.3195C78.5281 24.6952 78.3176 24.9706 77.9006 25.1496C77.6646 25.2518 77.2771 25.3364 76.7322 25.4053L75.735 25.5253C74.602 25.6708 73.7384 25.9108 73.1582 26.2452C72.0901 26.8589 71.559 27.8503 71.559 29.2213C71.559 30.2776 71.8895 31.0939 72.5523 31.6702C73.2133 32.2485 74.0532 32.4904 75.0701 32.5376C81.4334 32.8229 81.3626 29.1819 81.4216 28.4266V24.2369C81.4216 22.8934 80.9456 21.9807 79.9935 21.4949Z" fill="#00BCFF"/>
<path d="M101.809 29.1603C101.355 29.7662 100.704 30.0691 99.8518 30.0691C99.0021 30.0691 98.3471 29.7662 97.8888 29.1603C97.4265 28.5565 97.1984 27.6989 97.1984 26.5836C97.1984 25.4722 97.4265 24.6126 97.8888 24.0147C98.3471 23.4108 99.0021 23.1118 99.8518 23.1118C100.704 23.1118 101.355 23.4108 101.809 24.0147C102.263 24.6126 102.494 25.4722 102.494 26.5836C102.494 27.6989 102.263 28.5565 101.809 29.1603ZM104.136 22.4174C103.196 21.2412 101.772 20.653 99.8597 20.653C97.9517 20.653 96.5256 21.2412 95.5874 22.4174C94.6471 23.5937 94.179 24.9824 94.179 26.5836C94.179 28.2162 94.6471 29.6108 95.5874 30.7694C96.5256 31.926 97.9517 32.5062 99.8597 32.5062C101.772 32.5062 103.196 31.926 104.136 30.7694C105.072 29.6108 105.54 28.2162 105.54 26.5836C105.54 24.9824 105.072 23.5937 104.136 22.4174" fill="#00BCFF"/>
</g>
<defs>
<clipPath id="clip0_111_779">
<rect width="142.007" height="37" fill="white"/>
</clipPath>
</defs>
</svg>
