<svg width="24" height="24" xmlns="http://www.w3.org/2000/svg"><g fill="none" fill-rule="evenodd"><path d="M0 0h24v24H0z"></path><path d="M0 0h24v24H0z"></path><path d="M19.82 1.75l2.915 3.845V8.49c0 .892-.366 1.698-.957 2.277v11.407h-11.26l-.01-6.566H7.481v6.566H2.225l-.001-11.406a3.179 3.179 0 01-.958-2.278V5.596l2.9-3.846H19.82zm-2.789 8.698l-.09.11a3.181 3.181 0 01-2.245 1.115l-.18.005a3.181 3.181 0 01-2.427-1.12l-.089-.11-.09.11a3.181 3.181 0 01-2.245 1.115l-.18.005a3.181 3.181 0 01-2.427-1.12l-.09-.11-.088.11a3.181 3.181 0 01-2.246 1.115l-.18.005c-.252 0-.496-.029-.73-.084l-.001 9.08h2.258v-6.565h6.025l.01 6.565h8.261v-9.08a3.198 3.198 0 01-3.157-1.036l-.089-.11zm1.731 3.66v4.487h-5.254v-4.486h5.254zm-1.5 1.5h-2.255v1.486h2.255v-1.486zM19.075 3.25H4.912L2.765 6.096V8.49c0 .883.678 1.608 1.543 1.682l.145.006c.933 0 1.689-.756 1.689-1.688v-.75h1.654v.75a1.688 1.688 0 003.377 0v-.75h1.654v.75a1.688 1.688 0 003.377 0v-.75h1.654v.75a1.688 1.688 0 003.377 0l-.001-2.392-2.159-2.848z" fill="#000" fill-rule="nonzero"></path></g></svg>